<svg id="Layer_1" data-name="Layer 1" xmlns="http://www.w3.org/2000/svg" viewBox="0 0 1034.726 653.626">
  <path d="M1034.726,626.066H0c11.338-28.913,32.272-53.441,61.792-60.718,43.177-10.63,88.87,18.6,131.951,7.609,24.476-6.237,43.745-24.415,63.993-39.509,76.388-56.952,181.069-73.785,271.459-43.64,47.248,15.749,90.3,43.291,138.7,55,62.586,15.147,128.037,2.586,192.4.516C922.979,543.31,1012.792,568.851,1034.726,626.066Z" fill="#f3f5fd"></path>
  <circle cx="787.126" cy="18.526" r="9.296" fill="#fff"></circle>
  <g>
    <g>
      <path d="M827.425,413.638s-7.58,27.159-11.838,41.252a4.467,4.467,0,0,0,4.281,5.759h26.6a4.473,4.473,0,0,0,4.466-4.259l1.793-37.807Z" fill="#0f1011"></path>
      <path d="M868.191,474.052s-7.737-4.093-6.029-25.151l-15.979-2.948s1.812,18.877-6.265,24.878Z" fill="#E98862"></path>
      <path d="M843.188,466.882l13.263-10.166-10.424-.1A28.771,28.771,0,0,1,843.188,466.882Z" opacity="0.15"></path>
      <path d="M871.22,440.729c-1.1,6.389-4.581,12.442-10.215,14.51a40.49,40.49,0,0,1-19.355,2.633c-17.491-1.418-14.067-41.189-5.77-48.921s32.67-2.862,35.646,10.055C873.065,425.687,872.267,434.652,871.22,440.729Z" fill="#E98862"></path>
      <g>
        <circle cx="846.195" cy="434.381" r="1.449" fill="#0f1011"></circle>
        <circle cx="834.763" cy="433.454" r="1.449" fill="#0f1011"></circle>
        <line x1="836.088" y1="429.636" x2="832.249" y2="429.688" fill="none" stroke="#0f1011" stroke-linecap="round" stroke-miterlimit="10" stroke-width="1.362"></line>
        <line x1="849.319" y1="431.072" x2="845.534" y2="430.165" fill="none" stroke="#0f1011" stroke-linecap="round" stroke-miterlimit="10" stroke-width="1.362"></line>
        <path d="M845.535,445.793s-5.348.569-9.1-.737c0,0,.033,3.522,4.266,3.866S845.535,445.793,845.535,445.793Z" fill="#fff"></path>
      </g>
      <g opacity="0.15">
        <path d="M839.769,442.424a.5.5,0,0,0,.147-.979l-2.947-.9,2.057-4.593a.5.5,0,1,0-.912-.408l-2.52,5.626,4.029,1.234A.5.5,0,0,0,839.769,442.424Z"></path>
      </g>
      <path d="M826.513,416.894s2.561-20.713,35.75-15.626c8.274,1.268,20,7.728,21.9,28.9.868,9.712,4.216,18.869,6.77,24.665a4.471,4.471,0,0,1-4.083,6.286l-23.33.008a4.464,4.464,0,0,1-4.472-4.456c0-.066,0-.132,0-.2.168-3.971.3-10.694.074-20.97-1.213-5.865,2.018-10-2.672-8.652C839.036,431.846,827.821,417.229,826.513,416.894Z" fill="#0f1011"></path>
      <path d="M853.517,440.62a6.143,6.143,0,0,0,12.246.993,6.042,6.042,0,0,0-5.422-6.6c-.068-.006-.136-.012-.2-.016C855.758,434.852,853.792,437.238,853.517,440.62Z" fill="#E98862"></path>
    </g>
    <g>
      <path d="M808.232,618.647c-1.9-.318-23.3-3.975-23.3-3.975" fill="none" stroke="#e98862" stroke-miterlimit="10" stroke-width="21"></path>
      <path d="M770.934,648.859a4.107,4.107,0,0,0,3.693,4.751h0a4.106,4.106,0,0,0,3.919-2.039l12.112-22.755a3.461,3.461,0,0,0,.16-2.885,19.1,19.1,0,0,1-1.46-11.872,17.027,17.027,0,0,1,4.634-8.167,1.546,1.546,0,0,0-.767-2.691l-11.788-1.975a2.678,2.678,0,0,0-3.085,2.21Z" fill="#c1d8ed"></path>
    </g>
    <path d="M872.853,573.015c8.9.37,17.955.63,27.015.854l13.615.3,13.6.244,1.355.025a22.2,22.2,0,0,1,2.276,44.232l-134.4,16.319-5.476-39.72,133.8-20.655,3.631,44.256-13.808.892-13.8.834c-9.214.533-18.433,1.032-27.816,1.417Z" fill="#262626"></path>
    <g>
      <path d="M888.472,606.806c1.857.5,19.8,3.108,19.8,3.108" fill="none" stroke="#e98862" stroke-miterlimit="10" stroke-width="21"></path>
      <path d="M929.934,638.355a4.107,4.107,0,0,1-2.724,5.366h0a4.106,4.106,0,0,1-4.235-1.258l-16.211-20.042a3.46,3.46,0,0,1-.7-2.8,19.109,19.109,0,0,0-.82-11.933,17.028,17.028,0,0,0-6.1-7.139,1.547,1.547,0,0,1,.243-2.788l11.2-4.176a2.678,2.678,0,0,1,3.448,1.584Z" fill="#c1d8ed"></path>
    </g>
    <path d="M843.011,618.414c-5.632-.479-11.261-.825-16.89-1.149-5.628-.3-11.257-.6-16.883-.8l-8.441-.326-8.438-.243c-5.626-.187-11.25-.264-16.875-.372l1.95-40.409c10.529,1.473,21.072,2.825,31.611,4.212s21.092,2.662,31.641,3.959l15.834,1.867,15.844,1.776c10.569,1.135,21.138,2.264,31.731,3.193l-4.649,39.83c-10.522-1.534-21.067-2.87-31.612-4.2l-15.828-1.92L836.168,622c-10.565-1.167-21.128-2.352-31.7-3.433s-21.146-2.189-31.732-3.181a20.231,20.231,0,0,1,.7-40.338l1.252-.071c5.616-.329,11.233-.629,16.847-1.038l8.422-.576,8.421-.659c5.614-.423,11.226-.947,16.838-1.467,5.612-.547,11.223-1.116,16.831-1.817Z" fill="#262626"></path>
    <polygon points="893.288 566.88 896.248 616.585 810.758 615.581 817.211 571.576 893.288 566.88" fill="#262626"></polygon>
    <g>
      <path d="M760.849,473.921s-.15-12.011-8.735-11.386c-5.417.394-31.151-.8-31.534,1.544-.948,5.8,22.591,7.218,24.728,12.622Z" fill="#E98862"></path>
      <g>
        <path d="M923.336,557.131,899.085,485.02a20.229,20.229,0,0,0-5.543-9.2c-4.57-4.57-12.46-7.52-22.08-7.53-.72,5.61-34.78,5.63-35.04.13-1.3.02-2.31.04-2.94.07-9.406.406-14.971,3.009-18.114,7.161l-32.1,31.235L761.858,466.9l-18.512,9.914,28,52.279a10.5,10.5,0,0,0,16.579,2.568l25.471-24.785a161.02,161.02,0,0,1,1.808,19.543c.39,32.46-8.38,38.58-4.06,48.5,4.19,9.63,86.52,13.63,87.62-3.31.012-.178.013-.355.019-.532l13.89.423c.111,0,.222,0,.333,0a10.9,10.9,0,0,0,10.332-14.378Zm-25.66-7.9-4.972-.152a63.857,63.857,0,0,1-2.742-18.667c0-1.2.07-2.387.186-3.566Z" fill="#367CFF"></path>
        <path d="M836.422,468.423c.26,5.5,3.25,13.59,12.48,14.2,12.3.81,21.84-8.72,22.56-14.33h-.03C859.322,468.293,843.482,468.313,836.422,468.423Z" fill="#E98862"></path>
        <g>
          <g>
            <path d="M864.848,495.9l3.534,52.679a4.545,4.545,0,0,1-4.535,4.848H790.27a4.543,4.543,0,0,1-4.52-4.077l-5.445-52.679a4.545,4.545,0,0,1,4.521-5.012h75.488A4.544,4.544,0,0,1,864.848,495.9Z" fill="#9ebcea"></path>
            <rect x="793.244" y="547.085" width="83.65" height="6.344" rx="3.172" transform="translate(1670.139 1100.514) rotate(180)" fill="#9ebcea"></rect>
          </g>
          <circle cx="822.395" cy="522.545" r="7" fill="#fff"></circle>
        </g>
        <path d="M832.48,560.119c4.49,2.771,11.44,4.081,17.5,4.561l.34-11.04c-2.85-.081-7.23-.381-11.52-.21-1.938-1.581-3.054-2.051-5.044-4.04-2.118-2.119-7.676-3.39-8.726,0S828.54,557.68,832.48,560.119Z" fill="#E98862"></path>
      </g>
    </g>
  </g>
  <g>
    <rect x="130.187" y="405.122" width="10.59" height="56.156" transform="translate(103.306 -19.55) rotate(13.302)" fill="#f0f6ff"></rect>
    <g>
      <rect x="124.107" y="400.538" width="5.818" height="48.777" transform="translate(-74.977 30.092) rotate(-10.452)" fill="#c1d8ed"></rect>
      <rect x="120.187" y="400.895" width="5.818" height="5.386" transform="translate(-73.279 30.127) rotate(-10.775)" fill="#dee8f5"></rect>
    </g>
    <rect x="110.19" y="435.058" width="50.584" height="3.415" transform="translate(-320.545 402.733) rotate(-68.498)" fill="#0cbc8b"></rect>
    <rect x="119.276" y="433.2" width="27.948" height="35.72" fill="#262626"></rect>
  </g>
  <g>
    <g>
      <rect x="165.491" y="613.906" width="11.527" height="12.707" fill="#c1d8ed"></rect>
      <rect x="55.822" y="613.906" width="11.527" height="12.707" fill="#c1d8ed"></rect>
    </g>
    <rect x="45.899" y="469.027" width="48.364" height="146.352" transform="translate(140.161 1084.406) rotate(-180)" fill="#c1d8ed"></rect>
    <rect x="177.165" y="472.268" width="49.527" height="141.638" transform="translate(403.857 1086.174) rotate(-180)" fill="#c1d8ed"></rect>
    <path d="M91.005,469.027H229.95V615.379H91.005Zm132.43,6.515H97.52V608.864H223.435Z" fill="#dee8f5"></path>
    <path d="M91.005,534.69H229.95v80.689H91.005Zm132.43,6.515H97.52v67.659H223.435Z" fill="#dee8f5"></path>
    <g>
      <polygon points="166.962 487.151 166.962 496.471 166.962 534.637 107.938 534.637 107.938 496.471 107.938 487.151 166.962 487.151" fill="#c1d8ed"></polygon>
      <rect x="127.284" y="496.471" width="59.024" height="38.166" fill="#dee8f5"></rect>
      <rect x="127.284" y="496.471" width="59.024" height="2.861" fill="#c1d8ed"></rect>
      <rect x="127.284" y="487.151" width="59.024" height="9.32" transform="translate(313.592 983.622) rotate(-180)" fill="#dee8f5"></rect>
      <rect x="148.895" y="504.136" width="15.803" height="5.731" rx="1.36" transform="translate(313.592 1014.003) rotate(-180)" fill="#fff"></rect>
    </g>
    <g>
      <rect x="209.548" y="613.906" width="11.527" height="12.707" fill="#dee8f5"></rect>
      <rect x="99.879" y="613.906" width="11.527" height="12.707" fill="#dee8f5"></rect>
    </g>
    <g>
      <rect x="112.992" y="594.333" width="64.169" height="14.53" transform="translate(290.153 1203.197) rotate(-180)" fill="#c1d8ed"></rect>
      <rect x="111.889" y="565.306" width="64.169" height="14.53" transform="translate(287.948 1145.142) rotate(-180)" fill="#c1d8ed"></rect>
      <g>
        <rect x="134.889" y="594.333" width="67.859" height="14.53" transform="translate(337.637 1203.197) rotate(-180)" fill="#dee8f5"></rect>
        <rect x="140.428" y="594.333" width="3.294" height="14.53" transform="translate(284.15 1203.197) rotate(-180)" fill="#c1d8ed" opacity="0.62"></rect>
        <rect x="147.016" y="594.333" width="3.294" height="14.53" transform="translate(297.325 1203.197) rotate(-180)" fill="#c1d8ed" opacity="0.62"></rect>
        <circle cx="194.969" cy="601.599" r="4.686" fill="#f3f5fd"></circle>
      </g>
      <g>
        <rect x="133.786" y="565.306" width="67.859" height="14.53" transform="translate(335.432 1145.142) rotate(-180)" fill="#dee8f5"></rect>
        <rect x="149.922" y="568.579" width="47.354" height="7.985" transform="translate(347.198 1145.142) rotate(-180)" fill="#f3f5fd"></rect>
        <rect x="139.326" y="565.306" width="6.233" height="14.53" transform="translate(284.884 1145.142) rotate(-180)" fill="#c1d8ed" opacity="0.62"></rect>
      </g>
      <g>
        <rect x="107.758" y="579.82" width="64.169" height="14.53" fill="#c1d8ed"></rect>
        <g>
          <rect x="129.655" y="579.82" width="67.859" height="14.53" fill="#f3f5fd"></rect>
          <rect x="188.682" y="579.82" width="3.294" height="14.53" fill="#dee8f5"></rect>
          <rect x="182.094" y="579.82" width="3.294" height="14.53" fill="#dee8f5"></rect>
          <circle cx="137.435" cy="587.085" r="4.686" fill="#dee8f5"></circle>
        </g>
        <rect x="147.062" y="583.523" width="29.955" height="7.123" transform="translate(324.08 1174.17) rotate(-180)" fill="#dee8f5"></rect>
      </g>
    </g>
  </g>
  <g>
    <rect x="186.841" width="621.087" height="449.786" fill="#dee8f5"></rect>
    <rect x="209.548" y="312.032" width="117.318" height="117.318" fill="#fff"></rect>
    <rect x="362.055" y="312.032" width="117.318" height="117.318" fill="#fff"></rect>
    <rect x="514.562" y="312.032" width="117.318" height="117.318" fill="#fff"></rect>
    <rect x="667.069" y="312.032" width="117.318" height="117.318" fill="#fff"></rect>
    <rect x="209.548" y="59.187" width="574.839" height="230.442" fill="#fff"></rect>
    <rect x="186.841" width="621.087" height="37.051" fill="#c1d8ed"></rect>
    <g>
      <g>
        <path d="M394.928,175.585a61.058,61.058,0,1,1-61.058-61.058A60.875,60.875,0,0,1,394.928,175.585Z" fill="#c1d8ed"></path>
        <circle cx="333.87" cy="157.705" r="24.172" fill="#dee8f5"></circle>
        <path d="M377.87,217.924a61.07,61.07,0,0,1-88,0c8.233-18.4,24.853-30.974,44-30.974S369.637,199.525,377.87,217.924Z" fill="#dee8f5"></path>
      </g>
      <rect x="419.808" y="114.906" width="123.27" height="37.252" fill="#dee8f5"></rect>
      <rect x="419.808" y="175.201" width="301.316" height="13.553" fill="#dee8f5"></rect>
      <rect x="419.808" y="211.797" width="301.316" height="13.553" fill="#dee8f5"></rect>
    </g>
    <circle cx="253.435" cy="363.1" r="30" fill="#c1d8ed"></circle>
    <rect x="259.789" y="366.346" width="47.291" height="47.291" fill="#dee8f5"></rect>
    <polyline points="456.4 363.1 456.4 410.391 409.109 410.391" fill="#dee8f5"></polyline>
    <rect x="386.58" y="333.1" width="18.261" height="67.364" fill="#dee8f5"></rect>
    <circle cx="432.754" cy="353.708" r="9.391" fill="#c1d8ed"></circle>
    <rect x="560.701" y="317.052" width="18.261" height="67.364" transform="translate(920.565 -219.097) rotate(90)" fill="#dee8f5"></rect>
    <circle cx="585.51" cy="380.995" r="24.783" fill="#c1d8ed"></circle>
    <rect x="716.598" y="317.635" width="18.261" height="67.364" transform="translate(1077.045 -374.411) rotate(90)" fill="#c1d8ed"></rect>
    <circle cx="740.7" cy="393.745" r="9.391" fill="#c1d8ed"></circle>
    <polyline points="720.552 407.221 687.112 373.782 720.552 340.342" fill="#dee8f5"></polyline>
  </g>
</svg>